<svg width="18" height="17" viewBox="0 0 18 17" fill="none" xmlns="http://www.w3.org/2000/svg">
<g opacity="0.35">
<path fill-rule="evenodd" clip-rule="evenodd" d="M16.8302 15.6535C17.2018 15.6535 17.5034 15.9551 17.5034 16.3267C17.5034 16.6983 17.2018 16.9999 16.8302 16.9999H10.32C9.9484 16.9999 9.64681 16.6983 9.64681 16.3267C9.64681 15.9551 9.9484 15.6535 10.32 15.6535H16.8302ZM12.6706 0.586702C12.7155 0.621708 14.2171 1.78857 14.2171 1.78857C14.7629 2.1135 15.1892 2.69424 15.3508 3.38179C15.5115 4.06216 15.3948 4.76408 15.0205 5.35738C15.018 5.36134 15.0155 5.36525 15.0068 5.37688L15.0001 5.38587C14.9393 5.46594 14.6752 5.79989 13.3423 7.46994C13.3299 7.49182 13.3158 7.51232 13.3005 7.53224C13.2781 7.5616 13.2536 7.58859 13.2275 7.61317C13.1366 7.72764 13.0405 7.84793 12.9396 7.97439L12.735 8.23062C12.3128 8.75928 11.8121 9.38616 11.2181 10.1297L10.9133 10.5113C9.76643 11.9467 8.2977 13.7845 6.41621 16.1383C6.00421 16.6517 5.38667 16.9506 4.72336 16.9587L1.45703 17H1.44806C1.13659 17 0.865521 16.7864 0.792817 16.4821L0.0576919 13.3666C-0.0940006 12.7212 0.0567943 12.0552 0.470582 11.5382L8.92586 0.962792C8.92945 0.959201 8.93215 0.954713 8.93574 0.951123C9.86295 -0.157399 11.5396 -0.32076 12.6706 0.586702ZM7.98315 4.29676L1.52166 12.3792C1.36817 12.5713 1.31162 12.819 1.36817 13.0569L1.97943 15.6464L4.7072 15.6123C4.9666 15.6096 5.20626 15.4938 5.36513 15.2964C6.18327 14.2728 7.21152 12.9862 8.2687 11.6633L8.64273 11.1952L9.01739 10.7264C10.0088 9.48561 10.9883 8.25967 11.8079 7.23354L7.98315 4.29676ZM9.97245 1.81011L8.82419 3.24478L12.6486 6.18073C13.3847 5.2587 13.869 4.65143 13.9138 4.59354C14.061 4.35478 14.1184 4.01728 14.0412 3.69236C13.9622 3.35935 13.7549 3.07661 13.456 2.8962C13.3923 2.85221 11.8798 1.67817 11.8332 1.64137C11.2641 1.18539 10.4338 1.26438 9.97245 1.81011Z" fill="#2B2B2B"/>
</g>
</svg>
