<svg width="18" height="18" viewBox="0 0 18 18" fill="none" xmlns="http://www.w3.org/2000/svg">
<g opacity="0.55">
<path d="M4.50299 3.7059V4.49983H3.85756C3.17558 4.49983 2.52152 4.77075 2.03929 5.25299C1.55705 5.73522 1.28613 6.38927 1.28613 7.07126V11.5713C1.28613 12.0827 1.48932 12.5733 1.851 12.935C2.21268 13.2966 2.70322 13.4998 3.2147 13.4998H4.50042V14.1427C4.50042 14.6542 4.70361 15.1447 5.06528 15.5064C5.42696 15.8681 5.9175 16.0713 6.42899 16.0713H11.5718C12.0833 16.0713 12.5739 15.8681 12.9356 15.5064C13.2972 15.1447 13.5004 14.6542 13.5004 14.1427V13.4998H14.7861C15.2976 13.4998 15.7882 13.2966 16.1498 12.935C16.5115 12.5733 16.7147 12.0827 16.7147 11.5713V7.07126C16.7147 6.38927 16.4438 5.73522 15.9616 5.25299C15.4793 4.77075 14.8253 4.49983 14.1433 4.49983H13.5004V3.69755C13.5004 3.46517 13.4546 3.23508 13.3656 3.02042C13.2766 2.80577 13.1462 2.61077 12.9817 2.44657C12.8173 2.28238 12.6221 2.15221 12.4073 2.06352C12.1925 1.97483 11.9624 1.92935 11.73 1.92969L6.26828 1.93805C5.79986 1.93873 5.35086 2.12528 5.01987 2.45675C4.68889 2.78821 4.50299 3.23748 4.50299 3.7059ZM13.5004 12.5355V10.9284C13.5004 10.4169 13.2972 9.92637 12.9356 9.5647C12.5739 9.20302 12.0833 8.99983 11.5718 8.99983H6.42899C5.9175 8.99983 5.42696 9.20302 5.06528 9.5647C4.70361 9.92637 4.50042 10.4169 4.50042 10.9284V12.5355H3.2147C2.95896 12.5355 2.71369 12.4339 2.53285 12.2531C2.35201 12.0723 2.25042 11.827 2.25042 11.5713V7.07126C2.25042 6.64502 2.41974 6.23624 2.72114 5.93484C3.02254 5.63344 3.43132 5.46412 3.85756 5.46412H14.1433C14.5695 5.46412 14.9783 5.63344 15.2797 5.93484C15.5811 6.23624 15.7504 6.64502 15.7504 7.07126V11.5713C15.7504 11.827 15.6488 12.0723 15.468 12.2531C15.2871 12.4339 15.0419 12.5355 14.7861 12.5355H13.5004ZM12.5361 3.69755V4.49983H5.46728V3.7059C5.46728 3.26233 5.82599 2.90297 6.26956 2.90233L11.7313 2.89397C11.8369 2.89381 11.9415 2.91447 12.0392 2.95477C12.1368 2.99508 12.2256 3.05425 12.3003 3.12888C12.3751 3.20352 12.4344 3.29216 12.4748 3.38974C12.5153 3.48731 12.5361 3.59191 12.5361 3.69755ZM6.42899 9.96412H11.5718C11.8276 9.96412 12.0729 10.0657 12.2537 10.2465C12.4345 10.4274 12.5361 10.6727 12.5361 10.9284V14.1427C12.5361 14.3984 12.4345 14.6437 12.2537 14.8245C12.0729 15.0054 11.8276 15.107 11.5718 15.107H6.42899C6.17325 15.107 5.92798 15.0054 5.74714 14.8245C5.5663 14.6437 5.4647 14.3984 5.4647 14.1427V10.9284C5.4647 10.6727 5.5663 10.4274 5.74714 10.2465C5.92798 10.0657 6.17325 9.96412 6.42899 9.96412Z" fill="black"/>
</g>
</svg>
