<svg width="123" height="112" viewBox="0 0 123 112" fill="none" xmlns="http://www.w3.org/2000/svg">
<path d="M53.7421 110C82.3185 110 105.484 86.6889 105.484 57.9324C105.484 29.1764 82.3185 5.86499 53.7421 5.86499C25.1658 5.86499 2 29.1764 2 57.9324C2 86.6889 25.1658 110 53.7421 110Z" fill="#FFECD4"/>
<path fill-rule="evenodd" clip-rule="evenodd" d="M51.279 109.689C51.3496 108.782 51.6749 107.915 52.461 107.135C53.2299 106.369 53.9988 105.604 54.7678 104.585C56.5921 102.544 58.6191 103.126 61.0296 103.817C61.3287 103.903 61.6336 103.99 61.9448 104.075C65.5466 104.917 66.6966 101.929 68.4347 97.4113C68.7994 96.464 69.19 95.4493 69.6345 94.3876C71.1914 91.2915 68.8886 89.9216 66.4101 88.4475C66.0321 88.2229 65.6501 87.9963 65.2771 87.7595C63.0905 86.4549 63.1423 84.4082 63.2046 81.9359C63.2153 81.51 63.2265 81.0714 63.2265 80.6218C62.9867 77.9986 64.9339 76.8254 66.8125 75.6937C68.9501 74.4058 70.9989 73.1715 69.6345 69.915C69.3004 69.1175 68.9924 68.3503 68.6998 67.6214C66.7474 62.758 65.478 59.596 61.6885 60.4828C61.3534 60.5737 61.0255 60.6682 60.7045 60.7607C58.3242 61.4468 56.3183 62.0249 54.5115 60.2279C54.0104 59.6672 53.494 59.1826 53.0072 58.7259C51.5018 57.3134 50.2793 56.1663 50.6667 53.8548C52.2599 47.064 51.8321 46.906 44.7177 44.2788C43.8199 43.9473 42.8156 43.5764 41.6954 43.1479C38.4228 41.9274 37.2539 43.9533 36.0276 46.0786C34.9487 47.9484 33.8254 49.8952 31.1862 49.7759C30.5862 49.7759 30.0059 49.805 29.4488 49.833C27.1495 49.9482 25.2471 50.0436 24.0091 47.9915C20.3493 42.0766 19.9555 42.2522 12.8089 45.4384C11.9471 45.8225 10.9871 46.2505 9.91138 46.7168C6.39008 48.2177 7.31136 51.1915 8.31595 54.4337C8.33504 54.4955 8.35423 54.5575 8.37342 54.6196C8.98193 57.0401 7.66446 58.3435 6.0721 59.9188C5.65203 60.3343 5.21298 60.7687 4.78495 61.2476C4.02638 62.1098 3.15318 62.4708 2.22607 62.5617C4.59681 88.2168 25.4643 108.471 51.279 109.689ZM24.5218 96.4272C31.9552 99.2314 40.4137 95.6626 43.2333 88.2699C46.0529 80.8767 42.4643 72.4642 35.031 69.6601C27.5976 66.856 19.139 70.4248 16.3194 77.8177C13.4999 85.2105 17.0884 93.623 24.5218 96.4272Z" fill="white" stroke="black" stroke-width="2" stroke-miterlimit="10"/>
<path d="M89.4919 40.722C89.2898 37.6761 89.693 35.6454 87.68 35.4424C86.2712 35.2393 85.2647 35.4424 84.6614 34.2239C84.0571 33.0056 83.2527 31.9903 84.0571 30.9749C86.0701 27.929 85.4658 28.132 82.0451 24.883C79.8309 22.8524 78.8248 27.1167 76.611 26.1014C75.4034 25.4922 74.1959 25.4922 73.7934 24.0707C72.9883 20.6186 72.9883 21.0247 68.1581 21.2279C66.3469 21.2279 66.3469 22.8524 66.3469 24.4769C66.1456 25.8983 65.1393 26.1014 63.7305 26.7105C61.5167 27.929 60.1079 23.8677 58.0952 26.1014C57.089 27.1167 56.284 28.132 55.479 29.3504C54.8752 30.9749 56.284 31.3811 57.089 32.8026C57.089 32.8026 57.089 32.8026 57.089 33.0056C57.2902 33.4117 57.089 33.8179 57.089 34.2239C57.089 34.4271 56.8877 34.8332 56.8877 35.0362C56.4852 36.0516 56.4852 36.8639 55.2777 37.0669C51.8563 37.6761 52.2588 37.8792 52.46 42.7527C52.6613 45.7987 56.284 43.565 57.2902 45.7987C57.6927 46.6109 58.4978 47.8294 58.0952 48.6416C57.894 49.4539 57.089 50.0631 56.8877 50.8754C55.8815 52.7029 57.6928 53.7182 59.5041 55.3428C61.7179 57.3734 62.7242 53.109 64.9381 54.1243C67.5544 55.1397 67.3531 54.5305 67.9569 57.5765C68.3594 59.6071 70.7745 58.9979 73.3908 58.7948C76.4098 58.5918 74.1959 54.9366 76.4098 53.9213C76.8123 53.7182 77.416 53.5152 77.8185 53.312C79.0261 52.7029 79.8309 53.5152 81.0385 54.1243C82.8495 55.3428 83.856 53.5152 85.869 51.0784C87.0767 49.6569 85.869 48.6416 84.8625 47.4232C84.0571 46.4079 84.6614 45.3926 85.0636 43.9711C85.869 41.9405 89.693 43.768 89.4919 40.722ZM75.6046 44.5803C73.1896 47.2201 69.1644 47.6263 66.3469 45.1895C63.7305 42.7527 63.328 38.6914 65.7431 35.8485C68.1581 33.2086 72.1833 32.8026 75.0009 35.2393C77.6173 37.6761 78.0198 41.7373 75.6046 44.5803Z" fill="white"/>
<path d="M110.089 84.6284L92.5712 85.0686C87.1667 85.1697 82.6085 81.2544 82.3768 76.2008C82.145 71.1471 86.232 66.9761 91.6364 66.8751L109.154 66.4348C114.559 66.3338 119.117 70.249 119.349 75.3027C119.68 80.3097 115.494 84.5273 110.089 84.6284Z" fill="#FF8F00"/>
<path d="M108.816 81.41C112.151 81.2914 114.752 78.6689 114.625 75.5524C114.498 72.4359 111.692 70.0057 108.357 70.1243C105.021 70.2429 102.42 72.8654 102.548 75.9819C102.674 79.0983 105.481 81.5285 108.816 81.41Z" fill="white"/>
<path d="M2 61.085C4.65842 81.2889 14.9731 106.172 51.9782 110" stroke="white" stroke-width="3"/>
</svg>
