<svg width="140" height="120" viewBox="0 0 140 120" fill="none" xmlns="http://www.w3.org/2000/svg">
<g clip-path="url(#clip0_270_123)">
<path d="M72.1035 104.462C100.659 104.462 123.81 81.3112 123.81 52.6535C123.81 23.9956 100.557 0.844971 72.1035 0.844971C43.5476 0.844971 20.397 23.9956 20.397 52.6535C20.397 81.3112 43.5476 104.462 72.1035 104.462Z" fill="#FFF0DC"/>
<path d="M47.0632 83H35.7287C34.2593 83 33 81.7415 33 80.2726V25.7273C33 24.2587 34.2593 23 35.7287 23H46.8297" fill="#F1F3F9"/>
<path d="M47.0632 83H35.7287C34.2593 83 33 81.7415 33 80.2726V25.7273C33 24.2587 34.2593 23 35.7287 23H46.8297" stroke="#303030" stroke-width="2" stroke-miterlimit="10"/>
<path d="M40.8857 34.9092H46.553" stroke="#303030" stroke-width="2" stroke-miterlimit="10" stroke-linecap="round"/>
<path d="M40.8857 47H46.553" stroke="#303030" stroke-width="2" stroke-miterlimit="10" stroke-linecap="round"/>
<path d="M40.8857 59.3567H46.553" stroke="#303030" stroke-width="2" stroke-miterlimit="10" stroke-linecap="round"/>
<path d="M40.8857 71.042H46.553" stroke="#303030" stroke-width="2" stroke-miterlimit="10" stroke-linecap="round"/>
<path d="M100.337 83H112.035C113.504 83 114.764 81.7415 114.764 80.2726V25.7273C114.764 24.2587 113.504 23 112.035 23H100.701" fill="#F1F3F9"/>
<path d="M100.337 83H112.035C113.504 83 114.764 81.7415 114.764 80.2726V25.7273C114.764 24.2587 113.504 23 112.035 23H100.701" stroke="#494949" stroke-width="2" stroke-miterlimit="10"/>
<path d="M106.157 34H100.7" stroke="#525252" stroke-width="2" stroke-miterlimit="10"/>
<path d="M106.157 47H100.7" stroke="#525252" stroke-width="2" stroke-miterlimit="10" stroke-linecap="round"/>
<path d="M106.157 58H100.7" stroke="#525252" stroke-width="2" stroke-miterlimit="10" stroke-linecap="round"/>
<path d="M106.157 71.042H100.7" stroke="#525252" stroke-width="2" stroke-miterlimit="10" stroke-linecap="round"/>
<path d="M98.1939 91.9863H51.0925C49.4273 91.9863 48 90.5592 48 88.8953V17.0909C48 15.4266 49.4273 14 51.0925 14H98.1939C99.8586 14 101.286 15.4266 101.286 17.0909V88.8953C101.286 90.5592 99.8586 91.9863 98.1939 91.9863Z" fill="white" stroke="#454545" stroke-width="2" stroke-miterlimit="10"/>
<path d="M92.484 33.5576H59.6562C59.4712 33.5576 59.3248 33.5435 59.2168 33.5248V33.0905C59.3248 33.0717 59.4712 33.0576 59.6562 33.0576H92.484C92.6692 33.0576 92.8155 33.0717 92.9235 33.0904V33.5071C92.8138 33.5351 92.6654 33.5576 92.484 33.5576ZM59.0235 33.4719C59.0236 33.4719 59.0241 33.4722 59.0252 33.4728L59.0235 33.4719ZM59.0235 33.1433C59.0235 33.1433 59.0241 33.143 59.0252 33.1424L59.0235 33.1433ZM93.1168 33.1433C93.1168 33.1433 93.1161 33.143 93.1149 33.1422C93.1162 33.1429 93.1168 33.1433 93.1168 33.1433Z" stroke="#121212" stroke-width="1.5" stroke-miterlimit="10"/>
<path d="M92.0173 45.25H59.1894C59.0044 45.25 58.858 45.2359 58.75 45.2171V44.7829C58.858 44.7641 59.0044 44.75 59.1894 44.75H92.0173C92.2024 44.75 92.3487 44.7641 92.4568 44.7828V45.2172C92.3487 45.2359 92.2024 45.25 92.0173 45.25ZM58.5567 45.1643C58.5568 45.1643 58.5573 45.1646 58.5584 45.1652L58.5567 45.1643ZM58.5567 44.8357C58.5567 44.8357 58.5572 44.8354 58.5584 44.8348L58.5567 44.8357ZM92.6501 44.8356C92.65 44.8356 92.6494 44.8353 92.6481 44.8346C92.6495 44.8353 92.6501 44.8356 92.6501 44.8356ZM92.65 45.1644C92.6501 45.1644 92.6494 45.1647 92.6481 45.1654C92.6493 45.1647 92.65 45.1643 92.65 45.1644Z" stroke="#121212" stroke-width="1.5" stroke-miterlimit="10"/>
<path d="M92.0173 59.25H59.1894C59.0044 59.25 58.858 59.2359 58.75 59.2171V58.7829C58.858 58.7641 59.0044 58.75 59.1894 58.75H92.0173C92.2024 58.75 92.3487 58.7641 92.4568 58.7828V59.2172C92.3487 59.2359 92.2024 59.25 92.0173 59.25ZM58.5567 59.1643C58.5567 59.1643 58.5573 59.1646 58.5584 59.1652L58.5567 59.1643ZM58.5567 58.8357C58.5567 58.8357 58.5573 58.8354 58.5584 58.8348L58.5567 58.8357ZM92.65 58.8356C92.65 58.8357 92.6494 58.8354 92.6483 58.8347L92.65 58.8356ZM92.6501 59.1644C92.6501 59.1644 92.6495 59.1648 92.6481 59.1654C92.6494 59.1647 92.65 59.1644 92.6501 59.1644Z" stroke="#121212" stroke-width="1.5" stroke-miterlimit="10"/>
<path d="M92.4848 72.7881H79.4009C79.2158 72.7881 79.0695 72.774 78.9614 72.7552V72.3209C79.0695 72.3022 79.2158 72.2881 79.4009 72.2881H92.4848C92.6698 72.2881 92.8162 72.3022 92.9243 72.321V72.7552C92.8162 72.774 92.6698 72.7881 92.4848 72.7881ZM78.7682 72.7024C78.7682 72.7024 78.7688 72.7026 78.7698 72.7033L78.7682 72.7024ZM78.7682 72.3738C78.7681 72.3738 78.7687 72.3735 78.7698 72.3729L78.7682 72.3738ZM93.1175 72.3738C93.1175 72.3738 93.1169 72.3735 93.1158 72.3729C93.117 72.3735 93.1176 72.3738 93.1175 72.3738ZM93.1175 72.7023C93.1175 72.7023 93.117 72.7027 93.1158 72.7033C93.1169 72.7026 93.1175 72.7023 93.1175 72.7023Z" stroke="#121212" stroke-width="1.5" stroke-miterlimit="10"/>
<path d="M90.6634 104.086C90.3313 105.496 89.8335 106.988 89.2529 108.232C87.6777 111.3 85.19 113.705 82.1218 115.281C78.9706 116.857 75.2391 117.52 71.5074 116.69C62.7174 114.866 57.0785 106.242 58.9028 97.4521C60.7272 88.6617 69.2685 82.9397 78.0585 84.8471C81.2097 85.5104 83.9462 87.0865 86.2682 89.2423C90.1656 93.1397 91.8236 98.7789 90.6634 104.086Z" fill="#FF8F00"/>
<path d="M74.35 103.225V108.35H77.15V103.225H82.375V100.5H77.15V95.45H74.35V100.5H69.125V103.225H74.35Z" fill="white"/>
</g>
<defs>
<clipPath id="clip0_270_123">
<rect width="139.437" height="120" fill="white"/>
</clipPath>
</defs>
</svg>
