<svg width="104" height="117" viewBox="0 0 104 117" fill="none" xmlns="http://www.w3.org/2000/svg">
<path d="M51.7065 103.617C80.2625 103.617 103.413 80.4663 103.413 51.8085C103.413 23.1506 80.1603 0 51.7065 0C23.1506 0 0 23.1506 0 51.8085C0 80.4663 23.1506 103.617 51.7065 103.617Z" fill="#FFF0DC"/>
<path d="M26.6667 82.1553H15.3322C13.8629 82.1553 12.6035 80.8967 12.6035 79.4279V24.8826C12.6035 23.414 13.8629 22.1553 15.3322 22.1553H26.4332" fill="#F1F3F9"/>
<path d="M26.6667 82.1553H15.3322C13.8629 82.1553 12.6035 80.8967 12.6035 79.4279V24.8826C12.6035 23.414 13.8629 22.1553 15.3322 22.1553H26.4332" stroke="#303030" stroke-width="2" stroke-miterlimit="10"/>
<path d="M20.4893 34.0645H26.1565" stroke="#303030" stroke-width="2" stroke-miterlimit="10" stroke-linecap="round"/>
<path d="M20.4893 46.1553H26.1565" stroke="#303030" stroke-width="2" stroke-miterlimit="10" stroke-linecap="round"/>
<path d="M20.4893 58.5122H26.1565" stroke="#303030" stroke-width="2" stroke-miterlimit="10" stroke-linecap="round"/>
<path d="M20.4893 70.1973H26.1565" stroke="#303030" stroke-width="2" stroke-miterlimit="10" stroke-linecap="round"/>
<path d="M79.9404 82.1553H91.6379C93.1074 82.1553 94.3666 80.8967 94.3666 79.4279V24.8826C94.3666 23.414 93.1074 22.1553 91.6379 22.1553H80.3036" fill="#F1F3F9"/>
<path d="M79.9404 82.1553H91.6379C93.1074 82.1553 94.3666 80.8967 94.3666 79.4279V24.8826C94.3666 23.414 93.1074 22.1553 91.6379 22.1553H80.3036" stroke="#494949" stroke-width="2" stroke-miterlimit="10"/>
<path d="M85.7604 33.1553H80.3037" stroke="#525252" stroke-width="2" stroke-miterlimit="10"/>
<path d="M85.7604 46.1553H80.3037" stroke="#525252" stroke-width="2" stroke-miterlimit="10" stroke-linecap="round"/>
<path d="M85.7604 57.1553H80.3037" stroke="#525252" stroke-width="2" stroke-miterlimit="10" stroke-linecap="round"/>
<path d="M85.7595 70.1973H80.3027" stroke="#525252" stroke-width="2" stroke-miterlimit="10" stroke-linecap="round"/>
<path d="M77.7975 91.1416H30.696C29.0308 91.1416 27.6035 89.7145 27.6035 88.0505V16.2462C27.6035 14.5818 29.0308 13.1553 30.696 13.1553H77.7975C79.4622 13.1553 80.89 14.5818 80.89 16.2462V88.0505C80.89 89.7145 79.4622 91.1416 77.7975 91.1416Z" fill="white" stroke="#454545" stroke-width="2" stroke-miterlimit="10"/>
<path d="M72.0876 32.7129H39.2597C39.0747 32.7129 38.9284 32.6988 38.8203 32.68V32.2458C38.9284 32.227 39.0747 32.2129 39.2597 32.2129H72.0876C72.2727 32.2129 72.419 32.227 72.5271 32.2457V32.6623C72.4173 32.6904 72.269 32.7129 72.0876 32.7129ZM38.6271 32.6272C38.6271 32.6272 38.6276 32.6274 38.6287 32.6281L38.6271 32.6272ZM38.6271 32.2986C38.627 32.2986 38.6276 32.2983 38.6287 32.2977L38.6271 32.2986ZM72.7203 32.2985C72.7203 32.2986 72.7196 32.2982 72.7184 32.2975C72.7197 32.2982 72.7204 32.2985 72.7203 32.2985Z" stroke="#121212" stroke-width="1.5" stroke-miterlimit="10"/>
<path d="M71.6208 44.4053H38.7929C38.6079 44.4053 38.4616 44.3912 38.3535 44.3724V43.9381C38.4616 43.9194 38.6079 43.9053 38.7929 43.9053H71.6208C71.8059 43.9053 71.9523 43.9193 72.0603 43.9381V44.3725C71.9523 44.3912 71.8059 44.4053 71.6208 44.4053ZM38.1603 44.3195C38.1603 44.3195 38.1609 44.3198 38.1619 44.3205L38.1603 44.3195ZM38.1602 43.991C38.1602 43.991 38.1608 43.9907 38.1619 43.9901L38.1602 43.991ZM72.2536 43.9909C72.2536 43.9909 72.2529 43.9906 72.2516 43.9899C72.253 43.9905 72.2536 43.9909 72.2536 43.9909ZM72.2536 44.3196C72.2536 44.3196 72.253 44.32 72.2516 44.3207C72.2529 44.32 72.2535 44.3196 72.2536 44.3196Z" stroke="#121212" stroke-width="1.5" stroke-miterlimit="10"/>
<path d="M71.6208 58.4053H38.7929C38.6079 58.4053 38.4616 58.3912 38.3535 58.3724V57.9381C38.4616 57.9194 38.6079 57.9053 38.7929 57.9053H71.6208C71.8059 57.9053 71.9523 57.9193 72.0603 57.9381V58.3725C71.9523 58.3912 71.8059 58.4053 71.6208 58.4053ZM38.1602 58.3196C38.1603 58.3195 38.1608 58.3198 38.1619 58.3205L38.1602 58.3196ZM38.1603 57.991C38.1602 57.991 38.1608 57.9907 38.1619 57.9901L38.1603 57.991ZM72.2536 57.9909C72.2535 57.9909 72.2529 57.9906 72.2518 57.99L72.2536 57.9909ZM72.2536 58.3196C72.2536 58.3196 72.253 58.32 72.2516 58.3207C72.2529 58.32 72.2536 58.3196 72.2536 58.3196Z" stroke="#121212" stroke-width="1.5" stroke-miterlimit="10"/>
<path d="M72.0878 71.9434H59.0039C58.8188 71.9434 58.6725 71.9293 58.5645 71.9105V71.4762C58.6725 71.4574 58.8188 71.4434 59.0039 71.4434H72.0878C72.2729 71.4434 72.4192 71.4574 72.5273 71.4762V71.9105C72.4192 71.9293 72.2729 71.9434 72.0878 71.9434ZM58.3712 71.8576C58.3712 71.8576 58.3718 71.8579 58.3729 71.8585L58.3712 71.8576ZM58.3712 71.5291C58.3712 71.5291 58.3717 71.5288 58.3728 71.5282L58.3712 71.5291ZM72.7206 71.5291C72.7205 71.5291 72.7199 71.5288 72.7188 71.5282C72.72 71.5288 72.7206 71.5291 72.7206 71.5291ZM72.7205 71.8576C72.7206 71.8576 72.72 71.8579 72.7188 71.8586C72.7199 71.8579 72.7205 71.8576 72.7205 71.8576Z" stroke="#121212" stroke-width="1.5" stroke-miterlimit="10"/>
<path d="M70.2664 103.241C69.9343 104.65 69.4365 106.143 68.856 107.387C67.2808 110.455 64.793 112.86 61.7248 114.435C58.5737 116.011 54.8421 116.675 51.1104 115.845C42.3204 114.021 36.6815 105.396 38.5059 96.6069C40.3302 87.8165 48.8715 82.0945 57.6615 84.0018C60.8127 84.6652 63.5492 86.2413 65.8712 88.397C69.7686 92.2945 71.4267 97.9337 70.2664 103.241Z" fill="#FF8F00"/>
<path d="M53.9535 102.38V107.505H56.7535V102.38H61.9785V99.6548H56.7535V94.6048H53.9535V99.6548H48.7285V102.38H53.9535Z" fill="white"/>
</svg>
