<svg width="32" height="32" viewBox="0 0 32 32" fill="none" xmlns="http://www.w3.org/2000/svg">
<circle cx="16" cy="16" r="15.5" stroke="black" stroke-opacity="0.15"/>
<path d="M17.5573 16.4994L20.7796 13.2845C20.9207 13.1434 21 12.952 21 12.7524C21 12.5529 20.9207 12.3615 20.7796 12.2204C20.6385 12.0793 20.4471 12 20.2476 12C20.048 12 19.8566 12.0793 19.7155 12.2204L16.5006 15.4427L13.2858 12.2204C13.1447 12.0793 12.9533 12 12.7537 12C12.5542 12 12.3628 12.0793 12.2217 12.2204C12.0806 12.3615 12.0013 12.5529 12.0013 12.7524C12.0013 12.952 12.0806 13.1434 12.2217 13.2845L15.444 16.4994L12.2217 19.7142C12.1514 19.7839 12.0957 19.8668 12.0576 19.9581C12.0196 20.0494 12 20.1473 12 20.2463C12 20.3452 12.0196 20.4431 12.0576 20.5345C12.0957 20.6258 12.1514 20.7087 12.2217 20.7783C12.2913 20.8486 12.3742 20.9043 12.4655 20.9424C12.5569 20.9804 12.6548 21 12.7537 21C12.8527 21 12.9506 20.9804 13.0419 20.9424C13.1332 20.9043 13.2161 20.8486 13.2858 20.7783L16.5006 17.556L19.7155 20.7783C19.7852 20.8486 19.868 20.9043 19.9594 20.9424C20.0507 20.9804 20.1486 21 20.2476 21C20.3465 21 20.4444 20.9804 20.5357 20.9424C20.6271 20.9043 20.7099 20.8486 20.7796 20.7783C20.8499 20.7087 20.9056 20.6258 20.9436 20.5345C20.9817 20.4431 21.0013 20.3452 21.0013 20.2463C21.0013 20.1473 20.9817 20.0494 20.9436 19.9581C20.9056 19.8668 20.8499 19.7839 20.7796 19.7142L17.5573 16.4994Z" fill="black"/>
</svg>
