<svg width="60" height="60" viewBox="0 0 60 60" fill="none" xmlns="http://www.w3.org/2000/svg">
<path d="M29.9999 60C46.568 60 60 46.5946 60 30.0001C60 13.4055 46.5087 0 29.9999 0C13.4319 0 0 13.4055 0 30.0001C0 46.5946 13.4319 60 29.9999 60Z" fill="#FFF0DC"/>
<mask id="mask0_310_722" style="mask-type:alpha" maskUnits="userSpaceOnUse" x="0" y="0" width="60" height="60">
<path d="M29.9999 60C46.568 60 60 46.5946 60 30.0001C60 13.4055 46.5087 0 29.9999 0C13.4319 0 0 13.4055 0 30.0001C0 46.5946 13.4319 60 29.9999 60Z" fill="#FFF0DC"/>
</mask>
<g mask="url(#mask0_310_722)">
<path d="M22 16V30.7826L30.7891 27.7391L31.1797 66H47V16H22Z" fill="white" stroke="black" stroke-width="2"/>
<path d="M7 35.5531L31 26V64H7V35.5531Z" fill="white" stroke="black" stroke-width="2"/>
<path d="M38 27H40" stroke="black" stroke-width="3" stroke-linecap="round"/>
<path d="M38 38H40" stroke="black" stroke-width="3" stroke-linecap="round"/>
<path d="M38 50H40" stroke="black" stroke-width="3" stroke-linecap="round"/>
<rect x="15" y="41" width="8" height="8" fill="#FFF0DC" stroke="black" stroke-width="2"/>
</g>
</svg>
