<svg width="24" height="15" viewBox="0 0 24 15" fill="none" xmlns="http://www.w3.org/2000/svg">
<path fill-rule="evenodd" clip-rule="evenodd" d="M11.775 0.532715C17.889 0.532715 22.6761 7.03068 22.877 7.30736C23.0676 7.56958 23.0676 7.92585 22.877 8.18829C22.6761 8.46471 17.889 14.9627 11.775 14.9627C5.66101 14.9627 0.873681 8.46475 0.672987 8.18807C0.482702 7.92559 0.482702 7.56958 0.672987 7.30709C0.873681 7.03068 5.66101 0.532715 11.775 0.532715ZM2.21611 7.74713C3.37078 9.15706 7.27138 13.4699 11.775 13.4699C16.2883 13.4699 20.1807 9.15927 21.3339 7.74815C20.1787 6.33747 16.2784 2.02539 11.775 2.02539C7.26172 2.02539 3.36928 6.33596 2.21611 7.74713Z" fill="black" fill-opacity="0.3"/>
<path fill-rule="evenodd" clip-rule="evenodd" d="M6.95605 7.34667C6.95605 4.9155 8.93784 2.9375 11.3737 2.9375C13.8095 2.9375 15.7913 4.9155 15.7913 7.34667C15.7913 9.77784 13.8095 11.7558 11.3737 11.7558C8.93784 11.7558 6.95605 9.77784 6.95605 7.34667ZM8.4286 7.34664C8.4286 8.96747 9.74967 10.2861 11.3736 10.2861C12.9976 10.2861 14.3187 8.96747 14.3187 7.34664C14.3187 5.72582 12.9976 4.40723 11.3736 4.40723C9.74972 4.40723 8.4286 5.72582 8.4286 7.34664Z" fill="black" fill-opacity="0.3"/>
</svg>
