<svg width="16" height="15" viewBox="0 0 16 15" fill="none" xmlns="http://www.w3.org/2000/svg">
<path opacity="0.35" d="M14.4937 3.08825L11.9157 0.510192C11.5792 0.194141 11.1383 0.0127958 10.6768 0.000651813C10.2154 -0.0114921 9.76554 0.146413 9.41291 0.444329L0.94485 8.91239C0.64072 9.21909 0.451355 9.62108 0.40854 10.0509L0.00395454 13.9744C-0.0087203 14.1122 0.00916177 14.2511 0.0563259 14.3812C0.10349 14.5113 0.178775 14.6294 0.276814 14.7271C0.364732 14.8143 0.468998 14.8833 0.583634 14.9301C0.698271 14.977 0.821022 15.0007 0.94485 15H1.02953L4.95307 14.6424C5.38286 14.5996 5.78485 14.4103 6.09155 14.1061L14.5596 5.63807C14.8883 5.29085 15.0659 4.8275 15.0536 4.34955C15.0412 3.8716 14.8399 3.41804 14.4937 3.08825ZM4.7837 12.7607L1.96102 13.0241L2.21506 10.2014L7.53112 4.95122L10.0715 7.49164L4.7837 12.7607ZM11.2947 6.23084L8.7731 3.70924L10.6078 1.82745L13.1765 4.39609L11.2947 6.23084Z" fill="black"/>
</svg>
