<svg width="100" height="100" viewBox="0 0 100 100" fill="none" xmlns="http://www.w3.org/2000/svg">
<path d="M49.9999 100C77.6134 100 100 77.6577 100 50.0002C100 22.3426 77.5145 0 49.9999 0C22.3865 0 0 22.3426 0 50.0002C0 77.6577 22.3865 100 49.9999 100Z" fill="#FFF0DC"/>
<path d="M37.888 41.3687C37.888 40.5402 37.2164 39.8687 36.388 39.8687C35.5596 39.8687 34.888 40.5402 34.888 41.3687H37.888ZM69.9714 41.3687C69.9714 40.5402 69.2998 39.8687 68.4714 39.8687C67.6429 39.8687 66.9714 40.5402 66.9714 41.3687H69.9714ZM58.513 48.2437C58.513 47.4152 57.8414 46.7437 57.013 46.7437C56.1846 46.7437 55.513 47.4152 55.513 48.2437H58.513ZM55.513 61.9936C55.513 62.8221 56.1846 63.4936 57.013 63.4936C57.8414 63.4936 58.513 62.8221 58.513 61.9936H55.513ZM49.3464 48.2437C49.3464 47.4152 48.6748 46.7437 47.8464 46.7437C47.0179 46.7437 46.3464 47.4152 46.3464 48.2437H49.3464ZM46.3464 61.9936C46.3464 62.8221 47.0179 63.4936 47.8464 63.4936C48.6748 63.4936 49.3464 62.8221 49.3464 61.9936H46.3464ZM73.0547 35.9937C73.8831 35.9937 74.5547 35.3221 74.5547 34.4937C74.5547 33.6652 73.8831 32.9937 73.0547 32.9937V35.9937ZM31.8047 32.9937C30.9763 32.9937 30.3047 33.6652 30.3047 34.4937C30.3047 35.3221 30.9763 35.9937 31.8047 35.9937V32.9937ZM58.3737 29.6596L57.1256 30.4917L57.1256 30.4917L58.3737 29.6596ZM46.4857 29.6596L45.2376 28.8276L45.2376 28.8276L46.4857 29.6596ZM45.5547 74.952H59.3047V71.952H45.5547V74.952ZM34.888 41.3687V64.2853H37.888V41.3687H34.888ZM69.9714 64.2853V41.3687H66.9714V64.2853H69.9714ZM59.3047 74.952C65.1957 74.952 69.9714 70.1764 69.9714 64.2853H66.9714C66.9714 68.5195 63.5389 71.952 59.3047 71.952V74.952ZM45.5547 71.952C41.3205 71.952 37.888 68.5195 37.888 64.2853H34.888C34.888 70.1764 39.6637 74.952 45.5547 74.952V71.952ZM55.513 48.2437V61.9936H58.513V48.2437H55.513ZM46.3464 48.2437V61.9936H49.3464V48.2437H46.3464ZM50.2993 29.1187H54.5601V26.1187H50.2993V29.1187ZM57.1256 30.4917L60.3483 35.3257L62.8444 33.6616L59.6217 28.8276L57.1256 30.4917ZM61.5964 32.9937H43.263V35.9937H61.5964V32.9937ZM44.5111 35.3257L47.7338 30.4917L45.2376 28.8276L42.0149 33.6616L44.5111 35.3257ZM61.5964 35.9937H73.0547V32.9937H61.5964V35.9937ZM43.263 32.9937H31.8047V35.9937H43.263V32.9937ZM54.5601 29.1187C55.591 29.1187 56.5537 29.6339 57.1256 30.4917L59.6217 28.8276C58.4935 27.1352 56.5941 26.1187 54.5601 26.1187V29.1187ZM50.2993 26.1187C48.2653 26.1187 46.3659 27.1352 45.2376 28.8276L47.7338 30.4917C48.3056 29.6339 49.2684 29.1187 50.2993 29.1187V26.1187Z" fill="#28303F"/>
</svg>
