<svg width="24" height="21" viewBox="0 0 24 21" fill="none" xmlns="http://www.w3.org/2000/svg">
<g opacity="0.45" filter="url(#filter0_d_320_862)">
<path d="M10.7499 3.03888V0.75034C10.7499 0.551337 10.6709 0.360485 10.5301 0.219769C10.3894 0.0790534 10.1986 0 9.99956 0C9.80272 0.000828842 9.61409 0.0789776 9.47433 0.217599L4.22195 5.46998C4.15162 5.53973 4.0958 5.62272 4.05771 5.71416C4.01961 5.80559 4 5.90366 4 6.00272C4 6.10177 4.01961 6.19985 4.05771 6.29128C4.0958 6.38272 4.15162 6.46571 4.22195 6.53546L9.47433 11.7878C9.57966 11.8911 9.71309 11.961 9.85794 11.9888C10.0028 12.0167 10.1526 12.0012 10.2887 11.9444C10.4248 11.8875 10.5412 11.7918 10.6232 11.6692C10.7052 11.5466 10.7493 11.4026 10.7499 11.2551V8.92904H11.3877C12.5732 8.91136 13.7483 9.15187 14.8315 9.63387C15.9147 10.1159 16.8801 10.8278 17.6605 11.7203C17.7546 11.8455 17.8855 11.9382 18.0348 11.9853C18.1842 12.0324 18.3445 12.0315 18.4934 11.9829C18.6449 11.9318 18.7761 11.8336 18.8679 11.7027C18.9597 11.5718 19.0072 11.4149 19.0036 11.2551C19.0036 4.412 12.9409 3.24147 10.7499 3.03888V3.03888ZM11.3877 7.41336C10.8858 7.41179 10.3844 7.44438 9.88701 7.5109C9.70938 7.53785 9.54731 7.62765 9.43027 7.76396C9.31323 7.90028 9.24899 8.07407 9.24922 8.25374V9.44678L5.81267 6.00272L9.24922 2.55866V3.7517C9.24922 3.9507 9.32828 4.14155 9.46899 4.28227C9.60971 4.42299 9.80056 4.50204 9.99956 4.50204C10.6824 4.50204 16.0848 4.65211 17.2553 9.32672C15.5564 8.07407 13.4985 7.40304 11.3877 7.41336V7.41336Z" fill="black"/>
</g>
<defs>
<filter id="filter0_d_320_862" x="0" y="0" width="23.0039" height="20.02" filterUnits="userSpaceOnUse" color-interpolation-filters="sRGB">
<feFlood flood-opacity="0" result="BackgroundImageFix"/>
<feColorMatrix in="SourceAlpha" type="matrix" values="0 0 0 0 0 0 0 0 0 0 0 0 0 0 0 0 0 0 127 0" result="hardAlpha"/>
<feOffset dy="4"/>
<feGaussianBlur stdDeviation="2"/>
<feComposite in2="hardAlpha" operator="out"/>
<feColorMatrix type="matrix" values="0 0 0 0 0 0 0 0 0 0 0 0 0 0 0 0 0 0 0.25 0"/>
<feBlend mode="normal" in2="BackgroundImageFix" result="effect1_dropShadow_320_862"/>
<feBlend mode="normal" in="SourceGraphic" in2="effect1_dropShadow_320_862" result="shape"/>
</filter>
</defs>
</svg>
