<svg width="60" height="60" viewBox="0 0 60 60" fill="none" xmlns="http://www.w3.org/2000/svg">
<path d="M29.9999 60C46.568 60 60 46.5946 60 30.0001C60 13.4055 46.5087 0 29.9999 0C13.4319 0 0 13.4055 0 30.0001C0 46.5946 13.4319 60 29.9999 60Z" fill="#FFF0DC"/>
<path d="M16 27L30.5 12.5L44 25.5V46.5H16V27Z" fill="white"/>
<path d="M12 31.5L29.048 13.5304C29.8371 12.6987 31.1624 12.6992 31.9509 13.5315L48.5 31" stroke="black" stroke-width="2"/>
<path d="M44.5 27V44.5C44.5 45.6046 43.6046 46.5 42.5 46.5H19.5C17.8431 46.5 16.5 45.1569 16.5 43.5V26.5" stroke="black" stroke-width="2"/>
<path d="M26 34C26 33.4477 26.4477 33 27 33H35C35.5523 33 36 33.4477 36 34V46.5H26V34Z" fill="#FFF0DC" stroke="black" stroke-width="2"/>
</svg>
