<svg width="113" height="121" viewBox="0 0 113 121" fill="none" xmlns="http://www.w3.org/2000/svg">
<circle cx="55.7027" cy="55.6973" r="54.7027" fill="#FFF0DC"/>
<mask id="mask0_270_21" style="mask-type:alpha" maskUnits="userSpaceOnUse" x="0" y="-1" width="113" height="112">
<circle cx="56.6973" cy="54.7027" r="54.7027" fill="white" stroke="white" stroke-width="2"/>
</mask>
<g mask="url(#mask0_270_21)">
<path d="M76.84 79.72C65.6638 79.72 60.0775 79.72 39.4 79.72C18.7224 79.72 14.2537 79.72 1.95996 79.72C1.95996 59.8982 18.7224 43.8293 39.4 43.8293C60.0775 43.8293 76.84 59.8982 76.84 79.72Z" fill="white" stroke="black" stroke-width="2"/>
<ellipse cx="39.7865" cy="35.9043" rx="18.0111" ry="17.6643" fill="#FFF0DC" stroke="#161616" stroke-width="2"/>
<path fill-rule="evenodd" clip-rule="evenodd" d="M56.6792 62.3998L74.4392 40.3198L124.161 40.3198L138.279 60.7913V62.3998" fill="white" stroke="#050505" stroke-width="2"/>
<path fill-rule="evenodd" clip-rule="evenodd" d="M118.713 62.281V97.9197C118.713 97.9197 99.5579 106.56 92.1631 106.56C73.139 106.56 63.9819 120 63.9819 120L64.4751 62.3189L118.713 62.281Z" fill="white" stroke="#050505" stroke-width="2"/>
<path fill-rule="evenodd" clip-rule="evenodd" d="M109 105V74H90V105" fill="#FFECD4"/>
<path d="M109 105V74H90V105" stroke="#050505" stroke-width="2"/>
<rect x="72.0796" y="83" width="8.3008" height="8.3008" fill="white" stroke="#050505" stroke-width="2"/>
</g>
<circle cx="36" cy="105" r="16" fill="#FF8F00"/>
<path d="M29.9929 107.755L29.0957 111.628C29.0647 111.769 29.0658 111.916 29.0988 112.057C29.1318 112.198 29.1959 112.33 29.2864 112.443C29.3769 112.556 29.4916 112.648 29.622 112.711C29.7524 112.774 29.8952 112.807 30.0401 112.808C30.1077 112.815 30.1757 112.815 30.2432 112.808L34.139 111.911L41.619 104.459L37.4446 100.294L29.9929 107.755Z" fill="white"/>
<path d="M43.9707 100.729L41.1846 97.9425C41.0014 97.7603 40.7536 97.658 40.4952 97.658C40.2368 97.658 39.9889 97.7603 39.8057 97.9425L38.2568 99.4914L42.4266 103.661L43.9754 102.112C44.0661 102.021 44.1379 101.913 44.1867 101.794C44.2355 101.675 44.2604 101.548 44.26 101.419C44.2596 101.291 44.2338 101.164 44.1841 101.045C44.1345 100.927 44.062 100.819 43.9707 100.729V100.729Z" fill="white"/>
</svg>
